<svg width="279" height="310" viewBox="0 0 279 310" fill="none" xmlns="http://www.w3.org/2000/svg">
<rect width="279" height="310" rx="20" fill="#130204"/>
<path d="M36.856 174.264C35.24 174.264 33.864 173.968 32.728 173.376C31.608 172.784 30.752 171.88 30.16 170.664C29.568 169.432 29.272 167.872 29.272 165.984C29.272 164.112 29.568 162.568 30.16 161.352C30.752 160.12 31.608 159.208 32.728 158.616C33.864 158.024 35.232 157.728 36.832 157.728C37.776 157.728 38.696 157.824 39.592 158.016C40.488 158.192 41.352 158.464 42.184 158.832V161.376C41.336 160.96 40.504 160.616 39.688 160.344C38.872 160.072 38.032 159.936 37.168 159.936C36 159.936 35.024 160.144 34.24 160.56C33.472 160.976 32.896 161.624 32.512 162.504C32.128 163.384 31.936 164.544 31.936 165.984C31.936 167.408 32.128 168.568 32.512 169.464C32.912 170.36 33.496 171.016 34.264 171.432C35.032 171.848 35.968 172.056 37.072 172.056C37.632 172.056 38.168 172.016 38.68 171.936C39.192 171.84 39.68 171.712 40.144 171.552V167.736H36.784V165.48H42.784V172.824C41.856 173.304 40.896 173.664 39.904 173.904C38.912 174.144 37.896 174.264 36.856 174.264ZM52.1035 174.36C50.1515 174.36 48.6955 173.808 47.7355 172.704C46.7915 171.6 46.3195 170.024 46.3195 167.976C46.3195 165.8 46.8075 164.208 47.7835 163.2C48.7755 162.176 50.1995 161.664 52.0555 161.664C53.3835 161.664 54.4795 161.912 55.3435 162.408C56.2075 162.888 56.8475 163.6 57.2635 164.544C57.6795 165.488 57.8875 166.632 57.8875 167.976C57.8875 170.008 57.3835 171.584 56.3755 172.704C55.3835 173.808 53.9595 174.36 52.1035 174.36ZM52.0795 172.224C52.8955 172.224 53.5435 172.048 54.0235 171.696C54.5035 171.328 54.8475 170.824 55.0555 170.184C55.2795 169.544 55.3915 168.808 55.3915 167.976C55.3915 167.048 55.2795 166.272 55.0555 165.648C54.8315 165.024 54.4795 164.56 53.9995 164.256C53.5195 163.936 52.8795 163.776 52.0795 163.776C51.2795 163.776 50.6395 163.944 50.1595 164.28C49.6795 164.616 49.3355 165.096 49.1275 165.72C48.9195 166.344 48.8155 167.096 48.8155 167.976C48.8155 169.304 49.0635 170.344 49.5595 171.096C50.0555 171.848 50.8955 172.224 52.0795 172.224ZM72.8948 174.312C71.8068 174.312 70.9428 174.024 70.3028 173.448C69.6788 172.872 69.3668 172.024 69.3668 170.904V164.04H67.4228V161.952H69.3668V158.592H71.9588V161.952H74.8868V164.04H71.9588V170.4C71.9588 170.96 72.0548 171.384 72.2468 171.672C72.4548 171.944 72.8308 172.08 73.3748 172.08C73.6468 172.08 73.9188 172.048 74.1908 171.984C74.4628 171.904 74.6948 171.808 74.8868 171.696V173.928C74.5988 174.056 74.2708 174.152 73.9028 174.216C73.5508 174.28 73.2148 174.312 72.8948 174.312ZM83.4497 174.36C81.4977 174.36 80.0417 173.808 79.0817 172.704C78.1377 171.6 77.6657 170.024 77.6657 167.976C77.6657 165.8 78.1537 164.208 79.1297 163.2C80.1217 162.176 81.5457 161.664 83.4017 161.664C84.7297 161.664 85.8257 161.912 86.6897 162.408C87.5537 162.888 88.1937 163.6 88.6097 164.544C89.0257 165.488 89.2337 166.632 89.2337 167.976C89.2337 170.008 88.7297 171.584 87.7217 172.704C86.7297 173.808 85.3057 174.36 83.4497 174.36ZM83.4257 172.224C84.2417 172.224 84.8897 172.048 85.3697 171.696C85.8497 171.328 86.1937 170.824 86.4017 170.184C86.6257 169.544 86.7377 168.808 86.7377 167.976C86.7377 167.048 86.6257 166.272 86.4017 165.648C86.1777 165.024 85.8257 164.56 85.3457 164.256C84.8657 163.936 84.2257 163.776 83.4257 163.776C82.6257 163.776 81.9857 163.944 81.5057 164.28C81.0257 164.616 80.6817 165.096 80.4737 165.72C80.2657 166.344 80.1617 167.096 80.1617 167.976C80.1617 169.304 80.4097 170.344 80.9057 171.096C81.4017 171.848 82.2417 172.224 83.4257 172.224ZM110.385 166.032V174H107.865V166.368C107.865 166.064 107.825 165.768 107.745 165.48C107.681 165.176 107.545 164.904 107.337 164.664C107.145 164.408 106.857 164.208 106.473 164.064C106.105 163.92 105.617 163.848 105.009 163.848C104.577 163.848 104.145 163.888 103.713 163.968C103.281 164.048 102.865 164.16 102.465 164.304V174H99.9451V162.936C100.297 162.76 100.689 162.6 101.121 162.456C101.569 162.296 102.041 162.16 102.537 162.048C103.033 161.936 103.537 161.848 104.049 161.784C104.561 161.72 105.057 161.688 105.537 161.688C106.673 161.688 107.593 161.848 108.297 162.168C109.001 162.472 109.521 162.952 109.857 163.608C110.209 164.248 110.385 165.056 110.385 166.032ZM107.505 163.56C108.017 163.144 108.577 162.8 109.185 162.528C109.809 162.256 110.449 162.048 111.105 161.904C111.777 161.76 112.433 161.688 113.073 161.688C114.209 161.688 115.129 161.848 115.833 162.168C116.537 162.472 117.057 162.952 117.393 163.608C117.745 164.248 117.921 165.056 117.921 166.032V174H115.401V166.368C115.401 166.064 115.361 165.768 115.281 165.48C115.217 165.176 115.081 164.904 114.873 164.664C114.681 164.408 114.393 164.208 114.009 164.064C113.641 163.92 113.153 163.848 112.545 163.848C112.113 163.848 111.681 163.912 111.249 164.04C110.817 164.168 110.401 164.368 110.001 164.64L107.505 163.56ZM123.625 178.656C123.321 178.656 123.033 178.624 122.761 178.56C122.489 178.512 122.249 178.448 122.041 178.368V176.208C122.233 176.272 122.425 176.328 122.617 176.376C122.809 176.424 123.017 176.448 123.241 176.448C123.721 176.448 124.121 176.32 124.441 176.064C124.761 175.808 125.033 175.44 125.257 174.96C125.481 174.48 125.665 173.904 125.809 173.232L125.857 174.48L120.721 161.952H123.577L127.057 171.456H126.697L130.129 161.952H132.745L127.777 174.744C127.377 175.768 126.945 176.56 126.481 177.12C126.017 177.696 125.537 178.096 125.041 178.32C124.561 178.544 124.089 178.656 123.625 178.656ZM148.553 174.336C148.249 174.336 147.873 174.296 147.425 174.216C146.977 174.152 146.529 174.048 146.081 173.904C145.633 173.744 145.241 173.536 144.905 173.28L145.553 172.464V178.824H143.057V164.28C143.057 163.784 143.209 163.368 143.513 163.032C143.833 162.696 144.249 162.432 144.761 162.24C145.273 162.032 145.833 161.888 146.441 161.808C147.065 161.712 147.681 161.664 148.289 161.664C149.361 161.664 150.337 161.864 151.217 162.264C152.097 162.664 152.801 163.344 153.329 164.304C153.857 165.248 154.121 166.544 154.121 168.192C154.121 169.44 153.905 170.528 153.473 171.456C153.041 172.368 152.409 173.08 151.577 173.592C150.745 174.088 149.737 174.336 148.553 174.336ZM148.097 172.224C148.865 172.224 149.505 172.064 150.017 171.744C150.529 171.424 150.913 170.96 151.169 170.352C151.425 169.744 151.553 169.008 151.553 168.144C151.553 167.344 151.457 166.616 151.265 165.96C151.089 165.304 150.761 164.792 150.281 164.424C149.801 164.04 149.113 163.848 148.217 163.848C147.417 163.848 146.769 163.936 146.273 164.112C145.793 164.272 145.553 164.512 145.553 164.832V171.528C145.969 171.752 146.393 171.928 146.825 172.056C147.257 172.168 147.681 172.224 148.097 172.224ZM157.506 174V163.056C157.714 162.928 158.098 162.752 158.658 162.528C159.218 162.304 159.882 162.112 160.65 161.952C161.418 161.776 162.194 161.688 162.978 161.688C163.378 161.688 163.706 161.72 163.962 161.784C164.218 161.848 164.434 161.92 164.61 162V164.016C164.242 163.968 163.858 163.936 163.458 163.92C163.058 163.888 162.658 163.888 162.258 163.92C161.858 163.936 161.466 163.968 161.082 164.016C160.698 164.064 160.346 164.112 160.026 164.16V174H157.506ZM172.075 174.36C170.123 174.36 168.667 173.808 167.707 172.704C166.763 171.6 166.291 170.024 166.291 167.976C166.291 165.8 166.779 164.208 167.755 163.2C168.747 162.176 170.171 161.664 172.027 161.664C173.355 161.664 174.451 161.912 175.315 162.408C176.179 162.888 176.819 163.6 177.235 164.544C177.651 165.488 177.859 166.632 177.859 167.976C177.859 170.008 177.355 171.584 176.347 172.704C175.355 173.808 173.931 174.36 172.075 174.36ZM172.051 172.224C172.867 172.224 173.515 172.048 173.995 171.696C174.475 171.328 174.819 170.824 175.027 170.184C175.251 169.544 175.363 168.808 175.363 167.976C175.363 167.048 175.251 166.272 175.027 165.648C174.803 165.024 174.451 164.56 173.971 164.256C173.491 163.936 172.851 163.776 172.051 163.776C171.251 163.776 170.611 163.944 170.131 164.28C169.651 164.616 169.307 165.096 169.099 165.72C168.891 166.344 168.787 167.096 168.787 167.976C168.787 169.304 169.035 170.344 169.531 171.096C170.027 171.848 170.867 172.224 172.051 172.224ZM186.046 174.36C184.878 174.344 183.886 174.104 183.07 173.64C182.27 173.16 181.662 172.472 181.246 171.576C180.846 170.68 180.646 169.592 180.646 168.312C180.646 166.952 180.814 165.84 181.15 164.976C181.502 164.112 181.974 163.44 182.566 162.96C183.174 162.48 183.854 162.152 184.606 161.976C185.374 161.784 186.166 161.688 186.982 161.688C187.846 161.688 188.63 161.8 189.334 162.024C190.038 162.248 190.606 162.592 191.038 163.056C191.47 163.504 191.686 164.088 191.686 164.808V174.36C191.686 175 191.582 175.592 191.374 176.136C191.182 176.696 190.862 177.192 190.414 177.624C189.982 178.056 189.406 178.392 188.686 178.632C187.966 178.872 187.086 178.992 186.046 178.992C185.214 178.992 184.47 178.92 183.814 178.776C183.158 178.648 182.614 178.512 182.182 178.368V176.064C182.438 176.16 182.758 176.264 183.142 176.376C183.526 176.488 183.95 176.584 184.414 176.664C184.894 176.76 185.382 176.808 185.878 176.808C186.822 176.808 187.526 176.688 187.99 176.448C188.47 176.208 188.79 175.896 188.95 175.512C189.11 175.144 189.19 174.744 189.19 174.312V172.488L189.862 173.04C189.574 173.28 189.214 173.504 188.782 173.712C188.366 173.904 187.918 174.056 187.438 174.168C186.974 174.296 186.51 174.36 186.046 174.36ZM186.454 172.32C186.918 172.32 187.39 172.264 187.87 172.152C188.35 172.024 188.79 171.84 189.19 171.6V165.288C189.19 164.872 189.078 164.568 188.854 164.376C188.646 164.168 188.358 164.024 187.99 163.944C187.622 163.864 187.23 163.824 186.814 163.824C185.838 163.824 185.086 164.024 184.558 164.424C184.046 164.808 183.694 165.336 183.502 166.008C183.31 166.68 183.214 167.424 183.214 168.24C183.214 169.456 183.478 170.44 184.006 171.192C184.534 171.944 185.35 172.32 186.454 172.32ZM195.649 174V163.056C195.857 162.928 196.241 162.752 196.801 162.528C197.361 162.304 198.025 162.112 198.793 161.952C199.561 161.776 200.337 161.688 201.121 161.688C201.521 161.688 201.849 161.72 202.105 161.784C202.361 161.848 202.577 161.92 202.753 162V164.016C202.385 163.968 202.001 163.936 201.601 163.92C201.201 163.888 200.801 163.888 200.401 163.92C200.001 163.936 199.609 163.968 199.225 164.016C198.841 164.064 198.489 164.112 198.169 164.16V174H195.649ZM210.083 174.36C209.459 174.36 208.859 174.296 208.283 174.168C207.707 174.056 207.179 173.856 206.699 173.568C206.235 173.28 205.859 172.888 205.571 172.392C205.299 171.88 205.163 171.248 205.163 170.496C205.163 169.6 205.339 168.864 205.691 168.288C206.043 167.712 206.547 167.28 207.203 166.992C207.859 166.704 208.643 166.56 209.555 166.56C210.163 166.56 210.707 166.608 211.187 166.704C211.683 166.8 212.123 166.936 212.507 167.112C212.907 167.272 213.243 167.456 213.515 167.664L213.779 169.32C213.427 169.08 212.955 168.88 212.363 168.72C211.771 168.544 211.131 168.456 210.443 168.456C209.531 168.456 208.835 168.616 208.355 168.936C207.891 169.256 207.659 169.736 207.659 170.376C207.659 170.856 207.795 171.248 208.067 171.552C208.339 171.84 208.675 172.056 209.075 172.2C209.491 172.328 209.923 172.392 210.371 172.392C211.315 172.392 212.011 172.328 212.459 172.2C212.907 172.072 213.131 171.776 213.131 171.312V166.272C213.131 165.424 212.875 164.808 212.363 164.424C211.851 164.024 211.123 163.824 210.179 163.824C209.507 163.824 208.811 163.936 208.091 164.16C207.371 164.368 206.779 164.664 206.315 165.048V162.696C206.763 162.392 207.411 162.152 208.259 161.976C209.123 161.784 210.011 161.688 210.923 161.688C211.371 161.688 211.819 161.736 212.267 161.832C212.731 161.912 213.163 162.048 213.563 162.24C213.963 162.416 214.315 162.664 214.619 162.984C214.939 163.288 215.187 163.664 215.363 164.112C215.539 164.56 215.627 165.088 215.627 165.696V171.456C215.627 172.24 215.379 172.848 214.883 173.28C214.403 173.696 213.747 173.976 212.915 174.12C212.083 174.28 211.139 174.36 210.083 174.36ZM230.088 166.032V174H227.568V166.368C227.568 166.064 227.528 165.768 227.448 165.48C227.384 165.176 227.248 164.904 227.04 164.664C226.848 164.408 226.56 164.208 226.176 164.064C225.808 163.92 225.32 163.848 224.712 163.848C224.28 163.848 223.848 163.888 223.416 163.968C222.984 164.048 222.568 164.16 222.168 164.304V174H219.648V162.936C220 162.76 220.392 162.6 220.824 162.456C221.272 162.296 221.744 162.16 222.24 162.048C222.736 161.936 223.24 161.848 223.752 161.784C224.264 161.72 224.76 161.688 225.24 161.688C226.376 161.688 227.296 161.848 228 162.168C228.704 162.472 229.224 162.952 229.56 163.608C229.912 164.248 230.088 165.056 230.088 166.032ZM227.208 163.56C227.72 163.144 228.28 162.8 228.888 162.528C229.512 162.256 230.152 162.048 230.808 161.904C231.48 161.76 232.136 161.688 232.776 161.688C233.912 161.688 234.832 161.848 235.536 162.168C236.24 162.472 236.76 162.952 237.096 163.608C237.448 164.248 237.624 165.056 237.624 166.032V174H235.104V166.368C235.104 166.064 235.064 165.768 234.984 165.48C234.92 165.176 234.784 164.904 234.576 164.664C234.384 164.408 234.096 164.208 233.712 164.064C233.344 163.92 232.856 163.848 232.248 163.848C231.816 163.848 231.384 163.912 230.952 164.04C230.52 164.168 230.104 164.368 229.704 164.64L227.208 163.56ZM245.147 174.36C244.283 174.36 243.547 174.264 242.939 174.072C242.347 173.896 241.763 173.672 241.187 173.4V171.024C241.603 171.28 242.011 171.512 242.411 171.72C242.811 171.912 243.227 172.064 243.659 172.176C244.107 172.288 244.603 172.344 245.147 172.344C245.835 172.344 246.371 172.2 246.755 171.912C247.155 171.624 247.355 171.264 247.355 170.832C247.355 170.464 247.227 170.176 246.971 169.968C246.731 169.76 246.419 169.584 246.035 169.44C245.651 169.296 245.251 169.152 244.835 169.008C244.403 168.896 243.971 168.768 243.539 168.624C243.107 168.464 242.707 168.256 242.339 168C241.987 167.728 241.699 167.384 241.475 166.968C241.267 166.552 241.163 166.04 241.163 165.432C241.163 164.76 241.299 164.192 241.571 163.728C241.843 163.248 242.195 162.864 242.627 162.576C243.075 162.272 243.563 162.056 244.091 161.928C244.635 161.784 245.163 161.712 245.675 161.712C246.523 161.728 247.211 161.832 247.739 162.024C248.283 162.216 248.811 162.448 249.323 162.72L249.347 164.88C248.771 164.576 248.227 164.312 247.715 164.088C247.203 163.864 246.611 163.752 245.939 163.752C245.315 163.752 244.795 163.872 244.379 164.112C243.963 164.336 243.755 164.672 243.755 165.12C243.755 165.504 243.867 165.808 244.091 166.032C244.331 166.256 244.635 166.432 245.003 166.56C245.387 166.688 245.795 166.816 246.227 166.944C246.627 167.072 247.043 167.208 247.475 167.352C247.907 167.48 248.307 167.672 248.675 167.928C249.043 168.184 249.339 168.52 249.563 168.936C249.803 169.352 249.923 169.896 249.923 170.568C249.907 171.464 249.667 172.192 249.203 172.752C248.755 173.312 248.163 173.72 247.427 173.976C246.691 174.232 245.931 174.36 245.147 174.36Z" fill="white"/>
<path d="M28 177H251.099V178.2H28V177Z" fill="white"/>
<path d="M120.334 97H157.667" stroke="white" stroke-width="2" stroke-linecap="round" stroke-linejoin="round"/>
<path d="M139 78.3334L157.667 97L139 115.667" stroke="white" stroke-width="2" stroke-linecap="round" stroke-linejoin="round"/>
</svg>
