<svg width="40" height="40" viewBox="0 0 40 40" fill="none" xmlns="http://www.w3.org/2000/svg">
<circle cx="20" cy="20" r="20" fill="#66296B"/>
<path d="M29.1558 16.503L29.1572 16.503C29.8587 16.5464 30.4467 17.0735 30.4971 17.7741C30.4998 17.8193 30.5 17.8718 30.5 17.938V22.062C30.5 22.1282 30.4998 22.1807 30.4971 22.2259C30.4467 22.9269 29.8583 23.4544 29.1577 23.4969L29.1577 23.4969L29.1558 23.497C29.1129 23.4998 29.0619 23.5 28.988 23.5H26.215C24.186 23.5 22.5 21.9549 22.5 20C22.5 18.0451 24.186 16.5 26.215 16.5H28.988C29.0619 16.5 29.1129 16.5002 29.1558 16.503ZM25.971 21.567C26.8351 21.567 27.529 20.8611 27.529 20C27.529 19.1375 26.8348 18.433 25.971 18.433C25.1068 18.433 24.411 19.1379 24.411 20C24.411 20.8634 25.1071 21.567 25.971 21.567Z" fill="white" stroke="#5F0467"/>
<path d="M29.14 16.002C29.14 14.821 29.096 13.554 28.342 12.647C28.2683 12.5581 28.1905 12.4727 28.109 12.391C27.36 11.643 26.411 11.311 25.239 11.153C24.099 11 22.644 11 20.806 11H18.694C16.856 11 15.4 11 14.26 11.153C13.088 11.311 12.139 11.643 11.39 12.391C10.642 13.14 10.31 14.089 10.152 15.261C10 16.401 10 17.856 10 19.694V19.806C10 21.644 10 23.1 10.153 24.239C10.311 25.411 10.643 26.36 11.391 27.109C12.14 27.857 13.089 28.189 14.261 28.347C15.401 28.5 16.856 28.5 18.694 28.5H20.806C22.644 28.5 24.1 28.5 25.239 28.347C26.411 28.189 27.36 27.857 28.109 27.109C28.3082 26.9092 28.4846 26.6878 28.635 26.449C29.085 25.729 29.139 24.847 29.139 23.999L28.989 24H26.215C23.944 24 22 22.264 22 20C22 17.736 23.944 16 26.215 16H28.988C29.04 16 29.092 16 29.14 16.002Z" fill="white"/>
<path d="M13.75 15C13.5511 15 13.3603 15.079 13.2197 15.2197C13.079 15.3603 13 15.5511 13 15.75C13 15.9489 13.079 16.1397 13.2197 16.2803C13.3603 16.421 13.5511 16.5 13.75 16.5H17.75C17.9489 16.5 18.1397 16.421 18.2803 16.2803C18.421 16.1397 18.5 15.9489 18.5 15.75C18.5 15.5511 18.421 15.3603 18.2803 15.2197C18.1397 15.079 17.9489 15 17.75 15H13.75Z" fill="#5F0467"/>
</svg>
