<svg width="40" height="40" viewBox="0 0 40 40" fill="none" xmlns="http://www.w3.org/2000/svg">
<circle cx="20" cy="20" r="20" fill="#F3FFF6"/>
<path d="M20.4896 13.155C20.1771 12.8424 19.7533 12.6667 19.3113 12.6666H13.3346C12.8926 12.6666 12.4687 12.8422 12.1561 13.1548C11.8436 13.4673 11.668 13.8913 11.668 14.3333V20.31C11.6681 20.752 11.8437 21.1758 12.1563 21.4883L18.823 28.155C19.1355 28.4674 19.5594 28.6429 20.0013 28.6429C20.4432 28.6429 20.8671 28.4674 21.1796 28.155L27.1563 22.1783C27.4688 21.8657 27.6443 21.4419 27.6443 21C27.6443 20.558 27.4688 20.1342 27.1563 19.8216L20.4896 13.155ZM15.8346 18.5C15.3925 18.4998 14.9685 18.3241 14.656 18.0114C14.3434 17.6987 14.1679 17.2746 14.168 16.8325C14.1681 16.3903 14.3438 15.9663 14.6565 15.6538C14.9693 15.3412 15.3933 15.1657 15.8355 15.1658C16.2776 15.1659 16.7016 15.3416 17.0142 15.6544C17.3267 15.9671 17.5022 16.3912 17.5021 16.8333C17.502 17.2754 17.3263 17.6994 17.0136 18.012C16.7008 18.3245 16.2768 18.5001 15.8346 18.5Z" fill="#0DE337"/>
</svg>
